<svg width="16" height="16" viewBox="0 0 16 16" fill="none" xmlns="http://www.w3.org/2000/svg">
<path d="M0 7.0625V8.0625C4 14.0625 12 14.0625 16 8.0625V7.0625C12 1.0625 4 1.0625 0 7.0625ZM8 11.5625C5.79063 11.5625 4 9.77187 4 7.5625C4 5.35313 5.79063 3.5625 8 3.5625C10.2094 3.5625 12 5.35313 12 7.5625C12 9.77187 10.2094 11.5625 8 11.5625ZM8 5.3125C8 5.05312 8.05312 4.80937 8.13437 4.575C8.0875 4.57187 8.04688 4.5625 8 4.5625C6.34375 4.5625 5 5.90625 5 7.5625C5 9.21875 6.34375 10.5625 8 10.5625C9.65625 10.5625 11 9.21875 11 7.5625C11 7.51562 10.9875 7.475 10.9875 7.42812C10.7563 7.50938 10.5094 7.5625 10.25 7.5625C9.00625 7.5625 8 6.55625 8 5.3125Z" fill="white"/>
</svg>
